<?xml version="1.0" encoding="UTF-8" standalone="no"?>
<!-- Generator: Adobe Illustrator 17.1.0, SVG Export Plug-In . SVG Version: 6.00 Build 0)  -->

<svg
   version="1.1"
   id="Layer_1"
   x="0px"
   y="0px"
   viewBox="0.6 1067.9 95.999997 96"
   enable-background="new 0.6 1067.9 90.3 109.1"
   xml:space="preserve"
   sodipodi:docname="memsave_torch logo inv.svg"
   width="96"
   height="96"
   inkscape:version="1.3.2 (091e20e, 2023-11-25, custom)"
   xmlns:inkscape="http://www.inkscape.org/namespaces/inkscape"
   xmlns:sodipodi="http://sodipodi.sourceforge.net/DTD/sodipodi-0.dtd"
   xmlns:xlink="http://www.w3.org/1999/xlink"
   xmlns="http://www.w3.org/2000/svg"
   xmlns:svg="http://www.w3.org/2000/svg"><defs
   id="defs1"><linearGradient
     id="linearGradient45"
     inkscape:collect="always"><stop
       style="stop-color:#00cfff;stop-opacity:1;"
       offset="0"
       id="stop45" /><stop
       style="stop-color:#00ff89;stop-opacity:1;"
       offset="1"
       id="stop46" /></linearGradient><linearGradient
     id="linearGradient38"
     inkscape:collect="always"><stop
       style="stop-color:#00cfff;stop-opacity:1;"
       offset="0"
       id="stop37" /><stop
       style="stop-color:#00ff89;stop-opacity:1;"
       offset="1"
       id="stop38" /></linearGradient><linearGradient
     inkscape:collect="always"
     xlink:href="#linearGradient38"
     id="linearGradient30"
     x1="90.887527"
     y1="1176.775"
     x2="0.51990271"
     y2="1008.8254"
     gradientUnits="userSpaceOnUse" /><linearGradient
     inkscape:collect="always"
     xlink:href="#linearGradient45"
     id="linearGradient46"
     x1="0.60000002"
     y1="1067.9"
     x2="96.599998"
     y2="1163.9"
     gradientUnits="userSpaceOnUse" /></defs><sodipodi:namedview
   id="namedview1"
   pagecolor="#ffffff"
   bordercolor="#000000"
   borderopacity="0.25"
   inkscape:showpageshadow="2"
   inkscape:pageopacity="0.0"
   inkscape:pagecheckerboard="0"
   inkscape:deskcolor="#d1d1d1"
   showgrid="true"
   inkscape:zoom="7.5252063"
   inkscape:cx="31.759926"
   inkscape:cy="45.779476"
   inkscape:window-width="1920"
   inkscape:window-height="1017"
   inkscape:window-x="-8"
   inkscape:window-y="-8"
   inkscape:window-maximized="1"
   inkscape:current-layer="Layer_1"><inkscape:grid
     id="grid44"
     units="px"
     originx="0"
     originy="0"
     spacingx="0.99999997"
     spacingy="1"
     empcolor="#0099e5"
     empopacity="0.30196078"
     color="#0099e5"
     opacity="0.14901961"
     empspacing="5"
     dotted="false"
     gridanglex="30"
     gridanglez="30"
     visible="true" /></sodipodi:namedview>

<rect
   style="fill:url(#linearGradient46);fill-opacity:1;fill-rule:nonzero;stroke:none;stroke-width:1.5;stroke-linecap:butt;stroke-dasharray:none;stroke-dashoffset:0;stroke-opacity:1"
   id="rect44"
   width="96"
   height="96"
   x="0.60000002"
   y="1067.9" /><g
   id="g44"
   transform="translate(0,0.1287)"
   style="fill:#010001;fill-opacity:1"><g
     id="g1"
     transform="matrix(-0.37629398,0,0,-0.37629398,65.836621,1513.4216)"
     style="fill:#010001;fill-opacity:1;fill-rule:nonzero">
	<path
   d="m 77.6,1099.6 -8.1,8.1 c 13.3,13.3 13.3,34.7 0,47.8 -13.3,13.3 -34.7,13.3 -47.8,0 -13.3,-13.3 -13.3,-34.7 0,-47.8 v 0 l 21.1,-21.1 3,-3 v 0 -15.9 L 14,1099.5 c -17.7,17.7 -17.7,46.3 0,64 17.7,17.7 46.3,17.7 63.7,0 17.6,-17.7 17.6,-46.1 -0.1,-63.9 z"
   id="path1"
   style="fill:#010001;fill-opacity:1;fill-rule:nonzero"
   fill="#ee4c2c" />
	<circle
   cx="61.700001"
   cy="1091.8"
   r="5.9000001"
   id="circle1"
   style="fill:#010001;fill-opacity:1;fill-rule:nonzero"
   fill="#ee4c2c" />
</g><path
     style="color:#000000;fill:#010001;fill-opacity:1;stroke:none;stroke-linecap:round;-inkscape-stroke:none"
     d="m 48.260487,1111.6069 a 0.75,0.75 0 0 0 -0.75,0.75 v 0.7851 c 0,1.1493 0.702912,1.9334 1.128906,2.5879 0.425995,0.6545 0.646875,1.0425 0.382813,1.7285 -0.374045,0.9718 -1.099098,2.1062 -1.712891,3.3477 -0.613793,1.2415 -1.130108,2.6315 -0.921875,4.1465 0.261553,1.9028 1.412095,3.6791 2.181641,5.8047 0.769545,2.1255 1.223577,4.5415 0.240234,7.7031 -3.259857,10.4809 -1.289062,21.8515 -1.289062,21.8515 a 0.75,0.75 0 0 0 0.867187,0.6114 0.75,0.75 0 0 0 0.611328,-0.8653 c 0,0 -1.874417,-11.132 1.242188,-21.1523 1.089427,-3.5026 0.571503,-6.3568 -0.261719,-8.6582 -0.833222,-2.3014 -1.914634,-4.1097 -2.105469,-5.4981 -0.144767,-1.0532 0.217373,-2.1407 0.779297,-3.2773 0.561924,-1.1366 1.309475,-2.2793 1.769531,-3.4746 0.475897,-1.2364 -0.03554,-2.3333 -0.52539,-3.0859 -0.48985,-0.7527 -0.886719,-1.3006 -0.886719,-1.7696 v -0.7851 a 0.75,0.75 0 0 0 -0.75,-0.75 z"
     id="path20" /></g></svg>
